<svg width="605" height="337" viewBox="0 0 605 337" fill="none" xmlns="http://www.w3.org/2000/svg">
<g filter="url(#filter0_d_267_171)">
<path d="M93.3953 168.56C93.3953 173.78 89.1653 178.01 83.9453 178.01C78.7253 178.01 74.4953 173.78 74.4953 168.56C74.4953 163.34 78.7253 159.11 83.9453 159.11C89.1653 159.11 93.3953 163.34 93.3953 168.56ZM421.945 185.53C416.725 185.53 412.495 189.76 412.495 194.98C412.495 200.2 416.725 204.43 421.945 204.43C427.165 204.43 431.395 200.2 431.395 194.98C431.395 189.76 427.165 185.53 421.945 185.53ZM578.285 230.44C575.565 237.99 566.455 239.58 559.825 237.95C549.635 235.44 546.835 222.55 546.835 216.36L545.625 185.13C547.245 159.09 516.765 158.97 509.005 178.19C504.865 188.46 507.395 217.12 507.395 217.12C507.395 230.18 510.715 233.64 521.885 234.77V235.75H521.645C504.045 235.98 500.765 239.67 499.255 258.48C497.745 239.67 494.475 235.98 476.865 235.75H476.625V234.77C489.115 233.45 492.435 229.61 492.435 217.12V178.13C492.435 174.32 492.145 171.19 491.595 168.61C486.255 176.23 477.175 196.48 469.595 207.63C464.665 227.64 446.215 238.63 421.945 238.81C393.535 238.6 373.075 223.58 372.985 196.6C372.945 184.18 376.555 174.92 382.095 168.1C372.645 167.92 369.495 173.4 362.795 182.7C361.135 185 358.775 188.48 356.045 192.56C354.555 239.67 352.885 289.94 350.165 311.48C347.765 292.48 346.185 251.12 344.815 209.29C338.365 218.78 331.985 227.78 328.375 231.42C319.485 240.38 300.805 239.7 297.735 221.96C272.325 253.21 227.905 235.86 242.265 198.37C247.555 184.55 254.945 174.46 263.055 167.3C261.225 160.66 256.885 152.95 246.035 160.81C229.365 172.87 219.255 207.26 208.355 230.55C204.455 238.88 194.555 237.29 191.225 233.78C187.325 229.69 185.565 218.14 183.625 213.31C177.505 198.09 175.755 186.26 169.505 170.7C165.155 159.72 163.265 152.82 152.435 161.48C151.035 162.51 144.645 168.38 135.625 176.71C136.015 177.95 136.395 179.2 136.795 180.47C139.315 188.51 147.585 215.83 156.265 215.13C162.225 214.65 162.425 208.63 158.465 205.38C170.745 205.21 173.375 225.54 163.025 232.92C158.015 236.49 151.105 238.44 142.775 234.75C136.435 231.94 131.925 225.02 129.075 219.55C125.585 212.86 121.875 203.43 118.215 192.8C101.415 208.3 81.6953 226.36 66.8153 239.23C54.1153 250.21 37.8653 246.95 28.9753 234.36C19.5853 221.06 28.9753 198.86 35.1353 186.17C50.1353 155.27 90.0553 89.58 90.0553 89.58C92.0953 85.13 96.5453 82.27 101.445 82.27C106.775 82.27 110.455 84.99 111.725 90.16C119.705 122.47 125.345 143.27 133.775 170.7C142.625 164.06 149.095 158.99 150.705 157.47C150.705 157.47 158.735 150.26 164.535 147.12C169.325 144.53 176.315 145.6 181.655 150.14C185.345 153.27 188.585 161.18 190.005 164.97C194.735 178.03 199.775 204.31 205.085 217.56C213.685 199.8 229.195 165.82 242.425 157.38C255.995 148.72 262.285 156.98 265.285 165.44C284.155 150.19 306.135 150.06 314.485 155.57C315.455 152.16 316.095 149.97 316.235 149.64C322.235 149.55 334.015 149.85 335.385 149.97C335.555 152.99 328.735 175.91 322.875 197.69C320.115 207.96 317.125 216.08 320.485 221.97C323.045 226.46 330.065 219.63 333.485 215.47C337.365 210.75 340.965 206.26 344.605 201.48C343.355 162.52 342.265 124.33 340.855 104.64C340.055 93.52 337.495 90.44 328.805 90.16C320.385 89.88 313.485 90.56 314.045 98.1C314.335 101.92 320.535 104.59 322.885 98.24C325.875 107.08 314.355 111.77 306.905 105.42C298.155 97.96 301.385 77.52 320.405 77.18C326.485 77.07 330.545 77.17 334.705 77.26C340.025 77.37 344.385 73.09 344.375 67.77C344.365 63.48 345.075 52.03 345.385 44.57C342.075 42.84 339.815 39.37 339.815 35.38C339.815 29.65 344.465 25 350.195 25C355.925 25 360.575 29.65 360.575 35.38C360.575 39.37 358.315 42.83 355.005 44.57C355.315 52.02 356.025 63.47 356.015 67.77C356.005 73.09 360.365 77.38 365.685 77.26C369.845 77.17 373.905 77.07 379.985 77.18C399.005 77.52 402.245 97.96 393.485 105.42C386.025 111.77 374.515 107.08 377.505 98.24C379.855 104.59 386.055 101.92 386.345 98.1C386.905 90.56 380.005 89.89 371.585 90.16C362.905 90.45 360.335 93.52 359.535 104.64C358.315 121.58 357.345 152.21 356.305 185.25C357.555 183.43 358.825 181.54 360.155 179.55C369.685 165.22 380.625 164.96 384.535 165.4C394.865 154.9 410.165 151.29 421.975 151.16C441.425 151.36 470.335 161.01 470.905 195.36C477.575 186.41 484.935 170.34 490.525 164.92C489.155 161.5 487.125 159.45 484.605 158.18C475.485 153.57 467.455 154.37 454.615 151.04C471.105 151.04 491.405 151.04 507.415 151.04C507.415 155.4 507.415 161.45 507.415 166C528.865 147.21 558.835 142.85 560.615 181.15C560.615 189.9 560.625 198.62 560.645 207.37C560.655 212.79 560.565 222.66 567.245 223.67C572.845 224.51 574.215 219.38 570.615 215.47C577.665 215.5 580.995 222.91 578.285 230.44ZM115.335 184.2C103.415 147.35 92.7653 101.63 92.7653 101.63C80.8753 123.82 71.3353 141.62 61.2953 159.71C56.2553 168.78 45.5353 189.54 43.0153 198.93C39.5153 212.01 48.4053 222.22 58.9853 219.38C68.2253 216.89 93.5653 199.85 115.335 184.2ZM299.065 211.25C302.265 199.55 309.115 174.57 313.125 160.26C299.715 150.93 267.795 171.71 260.935 201.17C257.225 217.1 270.725 232 283.505 225.39C290.165 221.94 295.335 217.61 299.065 211.25ZM451.395 190.72C450.065 166.5 434.625 156.63 421.945 156.63C409.265 156.63 393.825 166.5 392.495 190.72C391.075 216.98 403.405 231.88 421.945 231.88C440.485 231.88 452.815 216.98 451.395 190.72Z" fill="white"/>
</g>
<defs>
<filter id="filter0_d_267_171" x="0" y="0" width="604.225" height="336.48" filterUnits="userSpaceOnUse" color-interpolation-filters="sRGB">
<feFlood flood-opacity="0" result="BackgroundImageFix"/>
<feColorMatrix in="SourceAlpha" type="matrix" values="0 0 0 0 0 0 0 0 0 0 0 0 0 0 0 0 0 0 127 0" result="hardAlpha"/>
<feOffset/>
<feGaussianBlur stdDeviation="12.5"/>
<feComposite in2="hardAlpha" operator="out"/>
<feColorMatrix type="matrix" values="0 0 0 0 0.85098 0 0 0 0 0.85098 0 0 0 0 0.85098 0 0 0 1 0"/>
<feBlend mode="normal" in2="BackgroundImageFix" result="effect1_dropShadow_267_171"/>
<feBlend mode="normal" in="SourceGraphic" in2="effect1_dropShadow_267_171" result="shape"/>
</filter>
</defs>
</svg>
